Genre:Drama
Language:English  http://www.imdb.com/title/tt1405500/
Source:1080p.BluRay.x264.SECTOR7
Subtitles:Romana


Format : MPEG-4
Format profile : Base Media
Codec ID : isom
File size : 2.40 GiB
Duration : 2h 13mn
Overall bit rate : 2 570 Kbps
Movie name : For.Colored.Girls.2010.720p.BRRip.x264.Feel-Free


Video
Format settings, CABAC : Yes
Format settings, ReFrames : 4 frames
Codec ID : avc1
Codec ID/Info : Advanced Video Coding
Duration : 2h 13mn
Bit rate mode : Variable
Bit rate : 2 200 Kbps
Width : 1 280 pixels
Height : 720 pixels
Display aspect ratio : 16:9
Frame rate mode : Constant
Frame rate : 23.976 fps
Color space : YUV
Chroma subsampling : 4:2:0
Bit depth : 8 bits
Scan type : Progressive
Bits/(Pixel*Frame) : 0.100
Stream size : 2.03 GiB (85%)
Writing library : x264

Audio
ID : 2
Format : AAC
Format/Info : Advanced Audio Codec
Format version : Version 4
Format profile : LC
Codec ID : 40
Duration : 2h 13mn
Bit rate mode : Variable
Bit rate : 384 Kbps
Channel(s) : 6 channels
Channel positions : Front: L C R, Side: L R, LFE
Sampling rate : 48.0 KHz
Stream size : 367 MiB (15%)


Plot:
Each of the women portray one of the characters represented in the collection of twenty poems, revealing different issues that impact women in general and women of color in particular.

TRAILER: http://www.imdb.com/video/imdb/vi2727282969/
 
http://shareimage.org/images/ktkmo7jl7rsv6b74qnn.png 
http://shareimage.org/images/bixf74o8ynsue67aqy6k.png 
http://shareimage.org/images/2iib2x2qdh00pdwrzct.png 
http://shareimage.org/images/32ec3t6xk3ddihl4rd39.png